<svg width="30" height="30" viewBox="0 0 30 30" fill="none" xmlns="http://www.w3.org/2000/svg">
<path d="M18.2344 3.1875C18.1055 3.375 18.0469 3.72656 18.0469 4.41797C18.0469 5.23828 18.0821 5.42578 18.2813 5.625C18.4102 5.75391 18.5977 5.85937 18.6915 5.85937C18.7852 5.85937 18.9727 5.75391 19.1016 5.625C19.3008 5.42578 19.336 5.23828 19.336 4.41797C19.336 3.33984 19.1602 2.92969 18.6915 2.92969C18.5391 2.92969 18.3282 3.04687 18.2344 3.1875Z" fill="#FFD059"/>
<path d="M13.0079 5.27344C12.879 5.40234 12.7735 5.58984 12.7735 5.69531C12.7735 6 14.2969 7.5 14.6016 7.5C14.918 7.5 15.2344 7.20703 15.2344 6.91406C15.2344 6.51562 13.711 5.03906 13.3008 5.03906C13.2657 5.03906 13.1368 5.14453 13.0079 5.27344Z" fill="#FFD059"/>
<path d="M23.0157 5.88281C22.5352 6.33984 22.1485 6.80859 22.1485 6.92578C22.1485 7.20703 22.4649 7.5 22.7813 7.5C23.086 7.5 24.6094 6 24.6094 5.69531C24.6094 5.48438 24.211 5.03906 24.0118 5.03906C23.9415 5.03906 23.4962 5.41406 23.0157 5.88281Z" fill="#FFD059"/>
<path d="M17.8594 6.79685C16.6407 7.05466 15.3868 8.02732 14.8711 9.10544C14.7305 9.42185 14.6016 9.69138 14.5782 9.7031C14.5664 9.72654 14.3555 9.69138 14.1329 9.60935C12.3399 9.02341 10.2422 9.39841 8.75395 10.5703C8.10942 11.0859 7.33598 12.164 7.03129 12.9843C6.75004 13.7109 6.64457 13.8281 6.21098 13.8281C5.73051 13.8281 4.78129 14.3554 4.25395 14.8945C2.87114 16.3359 2.88285 18.5859 4.27739 19.9804C5.48442 21.1758 7.95707 21.4804 7.82817 20.414C7.78129 20.0273 7.38285 19.8047 6.70317 19.8047C5.44926 19.8047 4.45317 18.7383 4.45317 17.4023C4.45317 16.3593 4.96879 15.5625 5.88285 15.1758C6.5977 14.8828 6.67973 14.9297 6.67973 15.5625C6.67973 16.207 6.82035 16.4062 7.2891 16.4062C7.7227 16.4062 7.81645 16.1836 7.87504 14.9297C7.92192 14.1211 8.01567 13.6992 8.23832 13.207C8.63676 12.3281 9.50395 11.4258 10.3711 10.9687C11.0274 10.6289 11.1563 10.6054 12.3047 10.6054C13.4297 10.6054 13.5938 10.6406 14.2383 10.9453C15.1289 11.3906 15.9141 12.1758 16.3477 13.0547C16.6172 13.6054 16.6875 13.9453 16.7461 14.8711C16.8164 16.1015 16.9571 16.4062 17.4141 16.4062C17.7657 16.4062 18.0469 15.9843 18.0469 15.4453C18.0469 14.9179 18.1875 14.8828 18.8555 15.2226C19.6641 15.6445 20.2735 16.5703 20.2735 17.4023C20.2735 17.9179 20.0039 18.5508 19.6055 18.9961C19.0782 19.582 18.9024 19.6758 18.0821 19.8047C17.7305 19.8633 17.3672 19.9804 17.2735 20.0508C17.0391 20.2383 17.0743 20.6718 17.3204 20.8945C17.5899 21.1406 17.9532 21.1406 18.75 20.9062C21.1758 20.1914 22.1719 17.5547 20.836 15.4336C20.6368 15.1289 20.4961 14.8593 20.5196 14.8359C20.543 14.8242 20.7539 14.6953 21 14.5547C21.5977 14.1797 22.2422 13.4414 22.6055 12.6679C22.8633 12.1054 22.9102 11.8593 22.8985 10.957C22.8868 9.80857 22.711 9.2695 22.0547 8.35544C21.1758 7.17185 19.336 6.48044 17.8594 6.79685ZM19.9805 8.21482C21.1407 8.7656 21.9141 10.1367 21.7383 11.3437C21.5157 12.8789 19.9805 14.2383 18.8204 13.9336C18.6211 13.875 18.3164 13.8164 18.1524 13.7812C17.918 13.7343 17.8243 13.6054 17.7071 13.2187C17.4844 12.4804 17.0274 11.7422 16.3125 10.9922C15.6914 10.3359 15.6797 10.3125 15.8204 9.91404C15.9961 9.35154 16.7696 8.50778 17.3672 8.22653C18.0704 7.88669 19.2657 7.88669 19.9805 8.21482Z" fill="#FFD059"/>
<path d="M24.0469 10.5703C23.8242 10.793 23.8711 11.3437 24.1289 11.4844C24.2578 11.543 24.8086 11.6016 25.3594 11.6016C26.2149 11.6016 26.4024 11.5664 26.6016 11.3672C26.8828 11.0859 26.8828 11.0273 26.6485 10.6875C26.4844 10.4531 26.3789 10.4297 25.3242 10.4297C24.5977 10.4297 24.1407 10.4766 24.0469 10.5703Z" fill="#FFD059"/>
<path d="M22.3829 14.6484C22.254 14.7773 22.1485 14.9648 22.1485 15.0703C22.1485 15.3633 23.6719 16.875 23.9649 16.875C24.2579 16.875 24.6094 16.5352 24.6094 16.2656C24.6094 15.8906 23.0743 14.4141 22.6758 14.4141C22.6407 14.4141 22.5118 14.5195 22.3829 14.6484Z" fill="#FFD059"/>
<path d="M9.86727 18.9492C9.51571 19.2539 7.12508 24.4688 7.17196 24.832C7.21883 25.2656 7.76961 25.4414 8.0743 25.1367C8.34383 24.8555 10.7813 19.6289 10.7813 19.3242C10.7813 19.1367 10.3829 18.75 10.1837 18.75C10.1368 18.75 9.99617 18.8438 9.86727 18.9492Z" fill="#FFD059"/>
<path d="M15.4454 18.8906C15.3399 18.9726 14.6719 20.3203 13.9454 21.8906C12.668 24.6562 12.6446 24.7383 12.8204 25.0195C13.0665 25.3945 13.5235 25.4062 13.7579 25.0429C13.9923 24.6797 16.4063 19.4765 16.4063 19.3359C16.4063 19.1719 15.961 18.75 15.7852 18.75C15.7032 18.75 15.5508 18.8203 15.4454 18.8906Z" fill="#FFD059"/>
<path d="M11.4376 21.1758C10.6876 22.6641 9.0235 26.3789 9.0235 26.5664C9.0235 26.6953 9.0821 26.8476 9.16413 26.9297C9.37507 27.1406 9.93757 27.1055 10.0782 26.8594C10.4649 26.2383 12.6563 21.3633 12.6563 21.1523C12.6563 20.8125 12.4337 20.625 12.0469 20.625C11.7774 20.625 11.6719 20.7187 11.4376 21.1758Z" fill="#FFD059"/>
</svg>
