<svg width="26" height="26" viewBox="0 0 26 26" fill="none" xmlns="http://www.w3.org/2000/svg">
<path d="M16.8478 16.5503L16.993 16.6903H17.1948H18.1051L24.6657 23.264L23.264 24.6657L16.6903 18.1051V17.1948V16.993L16.5503 16.8478L16.1683 16.4516L15.8405 16.1117L15.4824 16.4195C13.9566 17.7312 11.9773 18.5199 9.82369 18.5199C5.02068 18.5199 1.12744 14.6267 1.12744 9.82369C1.12744 5.02068 5.02068 1.12744 9.82369 1.12744C14.6267 1.12744 18.5199 5.02068 18.5199 9.82369C18.5199 11.9773 17.7312 13.9566 16.4195 15.4824L16.1117 15.8405L16.4516 16.1683L16.8478 16.5503ZM2.95706 9.82369C2.95706 13.6227 6.02468 16.6903 9.82369 16.6903C13.6227 16.6903 16.6903 13.6227 16.6903 9.82369C16.6903 6.02468 13.6227 2.95706 9.82369 2.95706C6.02468 2.95706 2.95706 6.02468 2.95706 9.82369Z" fill="black" stroke="black"/>
</svg>
